<?xml version="1.0" encoding="utf-8"?>
<!-- Generator: Adobe Illustrator 26.0.0, SVG Export Plug-In . SVG Version: 6.00 Build 0)  -->
<svg version="1.1" id="fd3d8d4a-46e1-4408-ba1e-9135a7e34c49"
	 xmlns="http://www.w3.org/2000/svg" xmlns:xlink="http://www.w3.org/1999/xlink" x="0px" y="0px" viewBox="0 0 18 18"
	 style="enable-background:new 0 0 18 18;" xml:space="preserve">
<style type="text/css">
	.st0{fill:#949494;}
	.st1{fill:url(#SVGID_1_);}
	.st2{fill:#552F99;}
	.st3{opacity:0.75;fill:#B77AF4;enable-background:new    ;}
</style>
<path class="st0" d="M8.6,8.7H1V2.2c0-0.6,0.5-1.1,1.1-1.1h6.5V8.7z M1.9,7.8h5.7V2H2.1C2,2,1.9,2.1,1.9,2.2l0,0L1.9,7.8z"/>
<path class="st0" d="M17,8.7H9.4V1.1h6.5c0.6,0,1.1,0.5,1.1,1.1V8.7z M10.4,7.7h5.7V2.2c0-0.1,0-0.2-0.1-0.2c0,0,0,0,0,0h-5.5V7.7z"
	/>
<path class="st0" d="M8.6,17.1H2.1C1.5,17.1,1,16.6,1,16V9.5h7.6V17.1z M1.9,10.4V16c0,0.1,0.1,0.1,0.2,0.1h5.5v-5.7H1.9z"/>
<path class="st0" d="M15.9,17.1H9.4V9.5H17V16C17,16.6,16.5,17.1,15.9,17.1z M10.4,16.1h5.5c0.1,0,0.1-0.1,0.1-0.1v-5.6h-5.7V16.1z"
	/>
<g id="aba16c9a-61c6-4221-a819-a34ed0568d69">
	<g>
		
			<linearGradient id="SVGID_1_" gradientUnits="userSpaceOnUse" x1="11.2427" y1="6.7178" x2="11.2427" y2="14.8866" gradientTransform="matrix(1 0 0 -1 0 20)">
			<stop  offset="0" style="stop-color:#773ADC"/>
			<stop  offset="1" style="stop-color:#B77AF4"/>
		</linearGradient>
		<path class="st1" d="M13.7,6.9c0-0.1-0.1-0.2-0.2-0.2L9,5.1c0,0,0,0,0,0h0c-0.1,0-0.1,0.1-0.1,0.1v7.9c0,0.1,0.1,0.1,0.1,0.1l0,0
			c0,0,0,0,0,0l4.5-1.8c0.1,0,0.2-0.1,0.2-0.2V6.9z"/>
		<path class="st2" d="M8.9,5.1L4.5,5.9C4.4,5.9,4.4,6,4.4,6.1v6.1c0,0.1,0,0.1,0.1,0.1l4.5,0.9c0.1,0,0.1,0,0.2-0.1c0,0,0,0,0,0
			V5.2C9.1,5.2,9,5.1,8.9,5.1C8.9,5.1,8.9,5.1,8.9,5.1z"/>
		<polygon class="st3" points="6.9,6.3 6.9,12.1 8.4,12.3 8.4,6.1 		"/>
		<polygon class="st3" points="5,6.6 5,11.7 6.3,11.9 6.3,6.4 		"/>
	</g>
</g>
</svg>
