<?xml version="1.0" encoding="utf-8"?>
<!-- Generator: Adobe Illustrator 19.2.1, SVG Export Plug-In . SVG Version: 6.00 Build 0)  -->
<!DOCTYPE svg PUBLIC "-//W3C//DTD SVG 1.1//EN" "http://www.w3.org/Graphics/SVG/1.1/DTD/svg11.dtd">
<svg version="1.1" id="Layer_1" xmlns="http://www.w3.org/2000/svg" xmlns:xlink="http://www.w3.org/1999/xlink" x="0px" y="0px" width="50px" height="50px" viewBox="0 0 50 50" enable-background="new 0 0 50 50" xml:space="preserve">
<path fill="#59B4D9" d="M26,21.3v-5h-2.5v5c0,0.9-0.8,1.7-2.1,2.1L18,24.1c-2.3,0.7-3.9,2.5-3.9,4.5v5.7h2.5v-5.7c0-0.9,0.8-1.7,2.1-2.1l3.4-0.8C24.4,25.1,26,23.3,26,21.3z"/>
<g>
	<path fill="#7FBA00" d="M19.6,36.9v-4.6c0-1.1-0.9-2-2-2H13c-1.1,0-2,0.9-2,2v4.6c0,1.1,0.9,2,2,2h4.6C18.7,38.9,19.6,38,19.6,36.9z"/>
</g>
<path fill="#59B4D9" d="M23.2,21.3v-5h2.5v5c0,0.9,0.8,1.7,2.1,2.1l4.2,0.9c2.3,0.7,3.9,2.5,3.9,4.5v5.7h-2.5v-5.7c0-0.9-0.8-1.7-2.1-2.1l-4.2-0.9C24.8,25.1,23.2,23.3,23.2,21.3z"/>
<g>
	<path fill="#7FBA00" d="M30.4,37.1v-4.6c0-1.1,0.9-2,2-2H37c1.1,0,2,0.9,2,2v4.6c0,1.1-0.9,2-2,2h-4.6C31.3,39.1,30.4,38.2,30.4,37.1z"/>
</g>
<rect x="23.2" y="16.3" fill="#59B4D9" width="2.8" height="4.8"/>
<path fill="#0072C6" d="M26.5,11.7v3.7h-3.7v-3.7H26.5 M27.3,8.9H22c-1.1,0-2,0.9-2,2v5.3c0,1.1,0.9,2,2,2h5.3c1.1,0,2-0.9,2-2v-5.3C29.3,9.8,28.4,8.9,27.3,8.9L27.3,8.9z"/>
<path fill="#59B4D9" d="M7.9,44.4c-2.1,0-3.6-0.4-4.5-1.1c-0.9-0.8-1.3-2.1-1.3-4V28.9c0-1.7-0.7-2.6-2.1-2.6v-2.6c1.4,0,2.1-0.9,2.1-2.7V10.8c0-1.9,0.4-3.3,1.3-4.1s2.4-1.1,4.5-1.1v2.6c-1.5,0-2.3,0.8-2.3,2.5v10c0,2.3-0.7,3.7-2.2,4.3l0,0c1.4,0.6,2.2,2,2.2,4.3v9.9c0,0.9,0.2,1.6,0.5,2c0.4,0.4,0.9,0.6,1.7,0.6L7.9,44.4C7.8,44.4,7.9,44.4,7.9,44.4z"/>
<path fill="#59B4D9" d="M42.1,5.6c2.1,0,3.6,0.4,4.5,1.1c0.9,0.8,1.3,2.1,1.3,4v10.4c0,1.7,0.7,2.6,2.1,2.6v2.6c-1.4,0-2.1,0.9-2.1,2.7v10.1c0,1.9-0.4,3.3-1.3,4.1c-0.9,0.8-2.4,1.2-4.5,1.2v-2.6c1.5,0,2.3-0.8,2.3-2.5v-10c0-2.3,0.7-3.7,2.2-4.3l0,0c-1.4-0.6-2.2-2-2.2-4.3v-9.9c0-0.9-0.2-1.6-0.5-2c-0.4-0.4-0.9-0.6-1.7-0.6L42.1,5.6L42.1,5.6z"/>
</svg>
